<svg xmlns="http://www.w3.org/2000/svg" xmlns:xlink="http://www.w3.org/1999/xlink" width="139" height="54" viewBox="0 0 139 54">
  <defs>
    <linearGradient id="group_30-a" x1="100%" x2="7.267%" y1="0%" y2="94.591%">
      <stop offset="0%" stop-color="#E5533A"/>
      <stop offset="100%" stop-color="#CF351B"/>
    </linearGradient>
    <linearGradient id="group_30-d" x1="100%" x2="-16.38%" y1="65.578%" y2="65.578%">
      <stop offset="0%" stop-color="#EDECF0"/>
      <stop offset="24.416%" stop-color="#F2F2F4"/>
      <stop offset="100%" stop-color="#D5D4D8"/>
    </linearGradient>
    <path id="group_30-c" d="M8.07977444,22.6801144 C7.8186086,22.578785 7.8186086,22.578785 7.55740716,22.4774224 C4.78279938,21.4005923 3.22219566,20.7864044 1.51045842,20.0892979 C0.795466229,19.7981168 0.361473437,19.2192357 0.152791711,18.4623027 C0.0294666652,18.0149766 0.000629608057,17.6365927 0.0022757681,17.0858659 C0.00733013919,11.0034456 0.00699337786,6.8673119 3.51506571e-06,1.82172397 C-0.00119530897,0.956360473 0.317856337,0.372279347 0.9051176,0.139426842 C1.32813962,-0.0283038467 1.81416501,0.0193087095 2.26093429,0.192392818 C5.4292144,1.41982489 8.83097612,2.74698102 12.4662194,4.17386123 L12.4763559,24.3820918 C12.4056041,24.3748477 12.3543065,24.3648742 12.3224632,24.3521716 C10.7393432,23.7206469 9.32511364,23.1632945 8.07977444,22.6801144 Z"/>
    <filter id="group_30-b" width="420.6%" height="264.3%" x="-144.3%" y="-65.7%" filterUnits="objectBoundingBox">
      <feOffset dx="2" dy="4" in="SourceAlpha" result="shadowOffsetOuter1"/>
      <feGaussianBlur in="shadowOffsetOuter1" result="shadowBlurOuter1" stdDeviation="6"/>
      <feColorMatrix in="shadowBlurOuter1" values="0 0 0 0 0   0 0 0 0 0   0 0 0 0 0  0 0 0 0.163298234 0"/>
    </filter>
    <path id="group_30-f" d="M24.9106734,24.3809571 C24.7682012,24.3766642 24.7446646,24.3611069 24.6336285,24.3262472 C24.5225923,24.2913875 24.5249531,24.2980598 24.3302108,24.2210817 C22.8148806,23.6227432 21.3950614,23.1118952 19.1996672,22.191292 C19.0159522,22.1142541 18.8875357,22.0603646 18.5753576,21.9293182 C18.2630948,21.7982169 18.2630948,21.7982169 17.9505393,21.6670151 C17.4455165,21.4550545 17.0679166,21.2968338 16.696421,21.1416398 C15.7432883,20.743464 14.7571878,20.3677496 13.9714684,20.0477647 C13.2564763,19.7565836 12.8224835,19.1777025 12.6138017,18.4207695 C12.4904767,17.9734434 12.4616396,17.5950595 12.4632858,17.0443327 C12.4683402,10.9619124 12.4680033,7.07950708 12.4610135,2.03396077 C12.4589364,0.534561061 14.2360462,-0.0536190249 15.1854932,0.306333279 C16.2836923,0.722680167 17.051433,1.05613541 18.3065115,1.60283702 C18.730241,1.78740998 19.1103237,1.95484093 19.7873808,2.25443599 C22.1152133,3.28449248 23.5251941,3.63124134 24.9106734,4.17743367 C24.9049809,4.39743861 24.9049809,11.1319464 24.9106734,24.3809571 Z"/>
    <filter id="group_30-e" width="445.4%" height="277.9%" x="-228.9%" y="-60%" filterUnits="objectBoundingBox">
      <feOffset dx="-7" dy="7" in="SourceAlpha" result="shadowOffsetOuter1"/>
      <feGaussianBlur in="shadowOffsetOuter1" result="shadowBlurOuter1" stdDeviation="6"/>
      <feColorMatrix in="shadowBlurOuter1" values="0 0 0 0 0.654901961   0 0 0 0 0.239215686   0 0 0 0 0.168627451  0 0 0 0.784137228 0"/>
    </filter>
    <radialGradient id="group_30-g" cx="89.468%" cy="63.838%" r="135.035%" fx="89.468%" fy="63.838%" gradientTransform="scale(-1 -.61682) rotate(30.916 3.026 -3.434)">
      <stop offset="0%" stop-opacity="0"/>
      <stop offset="100%"/>
    </radialGradient>
    <path id="group_30-i" d="M8.40254303,9.47392868 C8.32211144,9.50385467 8.3399705,9.58283823 8.32904444,9.63992579 C8.07072432,10.9905008 7.24617985,11.8322461 5.97129745,12.2695517 C5.13547588,12.5562621 4.2725805,12.5229573 3.41095764,12.4685903 C2.52142725,12.4124681 1.72421986,12.098684 1.06922676,11.4941526 C0.312871428,10.7960696 -0.0420280292,9.91663152 0.028091819,8.88076215 C0.045468202,8.62437274 0.267060964,8.40150747 0.532533481,8.38461376 C0.992042273,8.35534597 1.45356953,8.35262542 1.91277117,8.38593016 C2.21343525,8.40769451 2.40970939,8.67228944 2.4365638,9.04131817 C2.49110634,9.79179362 2.90340051,10.229187 3.65317389,10.3159812 C4.13857173,10.3721911 4.62853308,10.4282695 5.10037208,10.2420877 C5.57374687,10.0552915 5.78572997,9.68775472 5.81934186,9.18892967 C5.87831625,8.31440615 5.62012778,7.97131035 4.67934583,7.54278067 C4.06954888,7.26502182 3.41688141,7.08287696 2.79045403,6.83978311 C2.13489049,6.58536829 1.49534306,6.29427 0.994718938,5.77710321 C0.482642199,5.24808889 0.177107466,4.62161763 0.0529277603,3.88917676 C-0.0670394894,3.18148407 0.0800893285,2.53285354 0.424589284,1.93341221 C0.803666486,1.27394337 1.34729277,0.766912803 2.04607786,0.443957808 C2.86153923,0.0670745932 3.71943232,-0.0243269361 4.61036686,0.0244673513 C5.38787223,0.0670307135 6.11079119,0.250930766 6.76034321,0.681478921 C7.6711114,1.28522047 8.26032874,2.09831232 8.36471868,3.2158858 C8.36704431,3.24050234 8.38946686,3.26327594 8.40254303,3.28688324 L8.40254303,3.50628202 C8.28880671,3.76855131 8.11609599,3.96482546 7.80920099,3.96978387 C7.32753292,3.97755059 6.84494337,3.98720413 6.36419678,3.96504485 C6.07911001,3.95188093 5.89134854,3.76916563 5.85418239,3.48285023 C5.76765151,2.81605347 5.42604762,2.37778248 4.76728086,2.21529575 C4.40277174,2.12534225 4.03106633,2.13855006 3.66133552,2.20046439 C2.85219284,2.3359212 2.36174882,3.15212852 2.60826528,3.92985329 C2.78562725,4.48945181 3.16259823,4.84334203 3.69604441,5.04470622 C4.06480987,5.18389281 4.43906029,5.30855519 4.81177493,5.43707899 C5.53688788,5.68706195 6.25326876,5.94832201 6.9109824,6.36074783 C7.35293929,6.63784848 7.67076036,7.01073864 7.95439909,7.43154549 C8.18538212,7.77424637 8.30262883,8.15907182 8.40254303,8.55245382 L8.40254303,9.47392868 Z"/>
    <filter id="group_30-h" width="183.4%" height="156%" x="-41.7%" y="-20%" filterUnits="objectBoundingBox">
      <feOffset dy="1" in="SourceAlpha" result="shadowOffsetOuter1"/>
      <feGaussianBlur in="shadowOffsetOuter1" result="shadowBlurOuter1" stdDeviation="1"/>
      <feColorMatrix in="shadowBlurOuter1" values="0 0 0 0 0   0 0 0 0 0   0 0 0 0 0  0 0 0 0.5 0"/>
    </filter>
    <path id="group_30-k" d="M17.8766701,11.753833 C17.876714,10.4449438 17.880005,9.13609844 17.8757487,7.82720924 C17.8716678,6.56720208 18.4494765,5.61983817 19.4824498,4.96072037 C20.7593945,4.1459172 22.1301103,4.06732856 23.531147,4.61200796 C24.0565632,4.81626822 24.4851806,5.17340554 24.8322256,5.62203216 C24.9122623,5.72550062 24.9763706,5.8469159 25.0990145,5.90786488 C25.2656698,5.99070986 25.4647084,5.9145346 25.6243868,5.70149839 C26.3674466,4.71029861 27.3936185,4.29809219 28.5943441,4.28194444 C29.6178394,4.26812232 30.5572172,4.54425762 31.359383,5.21008902 C32.1497452,5.86604747 32.6109653,6.6952432 32.6149583,7.73234121 C32.6257089,10.525507 32.6194341,13.3188044 32.6178983,16.1120141 C32.6176789,16.527687 32.4200006,16.7375639 31.9822561,16.7547209 C31.5442484,16.7718779 31.1045733,16.770386 30.6664778,16.7540627 C30.2778787,16.7395824 30.0751542,16.4895555 30.0750665,16.0638341 C30.0744522,13.3729521 30.0748032,10.6821138 30.0748032,7.99123176 C30.0748032,7.11552349 29.5768996,6.56351618 28.7005331,6.45346575 C28.176916,6.38769 27.6636984,6.38874311 27.1994506,6.67953425 C26.759951,6.95483583 26.5404645,7.34216243 26.5428778,7.88289265 C26.5550325,10.5883428 26.5483628,13.2938369 26.5485822,15.9993309 C26.5486261,16.2877086 26.5194461,16.5631857 26.205618,16.6932892 C26.083764,16.7438387 25.9522125,16.7597232 25.8197395,16.7596793 C25.4321935,16.7595477 25.0446036,16.7624876 24.6571015,16.7588017 C24.1926782,16.7543698 23.9776235,16.5338302 23.9775796,16.0687048 C23.9774041,13.3705387 23.9776235,10.6723725 23.977448,7.97420642 C23.9774041,7.09222334 23.500475,6.56948382 22.6250301,6.44995537 C22.2418282,6.39760682 21.8665246,6.40726037 21.4990317,6.5027866 C20.824556,6.67808622 20.4380192,7.19788579 20.4377559,7.89825056 C20.4367028,10.5964167 20.437361,13.2945828 20.4373171,15.9927489 C20.4373171,16.5642827 20.2460453,16.7578802 19.6782412,16.7594599 C19.3199192,16.7604252 18.961641,16.7614345 18.6033628,16.7591527 C18.1155076,16.7560812 17.8781182,16.5208857 17.8773722,16.031407 C17.875266,14.6055782 17.8766263,13.1797056 17.8766701,11.753833"/>
    <filter id="group_30-j" width="147.5%" height="156%" x="-23.7%" y="-20%" filterUnits="objectBoundingBox">
      <feOffset dy="1" in="SourceAlpha" result="shadowOffsetOuter1"/>
      <feGaussianBlur in="shadowOffsetOuter1" result="shadowBlurOuter1" stdDeviation="1"/>
      <feColorMatrix in="shadowBlurOuter1" values="0 0 0 0 0   0 0 0 0 0   0 0 0 0 0  0 0 0 0.5 0"/>
    </filter>
    <path id="group_30-m" d="M4.4564201,9.20721875 C4.93172561,9.20721875 5.40703111,9.20958826 5.88229273,9.2062534 C6.14061285,9.20445433 6.21257565,9.13275481 6.21257565,8.88255244 C6.21253177,8.5536298 6.2029221,8.22470716 6.20450177,7.8958284 C6.20551101,7.69069054 6.13657591,7.50832628 6.03815362,7.33631764 C5.65675079,6.66991581 4.83826173,6.30457297 4.09177934,6.47785412 C3.46219262,6.6239737 2.98302569,6.96369077 2.770165,7.60082481 C2.63541027,8.00421139 2.68911909,8.4257642 2.68402904,8.8406034 C2.68060642,9.11678258 2.77007724,9.20454209 3.05248734,9.20634116 C3.52046493,9.20936886 3.98844252,9.20717487 4.4564201,9.20721875 M0.11087634,10.5083412 C0.11087634,9.55575564 0.101003395,8.7732041 0.114035682,7.99109135 C0.124084146,7.38853455 0.211273219,6.79462207 0.516895711,6.26135141 C1.08627941,5.26795764 1.94316326,4.63569425 3.05621712,4.4049745 C4.10288092,4.18803299 5.17051923,4.16258274 6.19809533,4.49791182 C7.53296135,4.93350615 8.44193047,5.80864398 8.7370657,7.2267499 C8.78423644,7.45334495 8.78392928,7.69200694 8.78634267,7.92531559 C8.79270523,8.53941276 8.7700194,9.15434365 8.79305627,9.76765098 C8.82342106,10.5776274 8.45952625,10.8907972 7.64380161,10.8946586 C6.14491307,10.9017671 4.64598064,10.8965893 3.1470921,10.896721 C2.74682097,10.896721 2.68288817,10.9620579 2.68293205,11.3682528 C2.68306369,11.8654543 2.68205445,12.3626558 2.68310757,12.8598573 C2.68512604,13.7937062 3.3404263,14.4916576 4.266333,14.5875788 C4.62127634,14.6243939 4.9648987,14.6241745 5.30386981,14.5225929 C5.86583783,14.3541824 6.20134243,13.9045904 6.21310221,13.3229642 C6.21472576,13.2425326 6.21099598,13.1620133 6.21393592,13.0816695 C6.22578346,12.7576614 6.43504601,12.520228 6.75769384,12.5103112 C7.24682147,12.4953482 7.73708997,12.4953921 8.22630536,12.508907 C8.55987925,12.5181657 8.77835655,12.7507722 8.78594775,13.0895239 C8.80657124,14.0057771 8.52973386,14.8145687 7.89172223,15.4865872 C7.15818437,16.2592219 6.25136535,16.6594053 5.19588173,16.7425135 C4.03758784,16.8336957 2.92637693,16.6759041 1.93833649,16.0298624 C0.870785934,15.3318233 0.231106868,14.3598428 0.141899326,13.0540252 C0.080028872,12.148391 0.139573699,11.2431077 0.11087634,10.5083412"/>
    <filter id="group_30-l" width="180.6%" height="155.9%" x="-40.3%" y="-20%" filterUnits="objectBoundingBox">
      <feOffset dy="1" in="SourceAlpha" result="shadowOffsetOuter1"/>
      <feGaussianBlur in="shadowOffsetOuter1" result="shadowBlurOuter1" stdDeviation="1"/>
      <feColorMatrix in="shadowBlurOuter1" values="0 0 0 0 0   0 0 0 0 0   0 0 0 0 0  0 0 0 0.5 0"/>
    </filter>
    <path id="group_30-o" d="M38.8989736,9.20735039 C39.3736209,9.20735039 39.8483121,9.20524416 40.3229594,9.20849126 C40.4941782,9.20963214 40.6619305,9.15829282 40.6684686,8.98101861 C40.6859328,8.50996945 40.7435469,8.02777482 40.5812795,7.57186417 C40.2893914,6.75179543 39.337464,6.2743837 38.4874693,6.4852698 C37.7254535,6.67434766 37.0750238,7.27405227 37.1407996,8.22554088 C37.154885,8.4290113 37.142467,8.63432467 37.1429497,8.83880433 C37.1436518,9.14069704 37.2093398,9.20616564 37.5188237,9.20699935 C37.978859,9.20822798 38.4389383,9.20730651 38.8989736,9.20735039 M34.5890163,10.3506813 C34.5890163,9.43679763 34.5722543,8.52256294 34.593536,7.60920584 C34.6165728,6.61818158 35.0850331,5.83870161 35.8312522,5.21499478 C36.6237206,4.55267376 37.5556827,4.28799107 38.5725082,4.27719665 C39.2892402,4.26964934 40.0091753,4.25854776 40.694972,4.50936444 C42.0056164,4.98870688 42.9063361,5.84997871 43.1834368,7.26308233 C43.2265706,7.48305154 43.2213927,7.71416621 43.2231479,7.94023471 C43.2280625,8.56898772 43.2105983,9.1982234 43.2284574,9.82649373 C43.2507922,10.6107566 42.8583755,10.8826355 42.1548075,10.8905778 C40.6415264,10.9076909 39.1278943,10.8957995 37.6144377,10.8957995 C37.1803791,10.8957995 37.142862,10.9336677 37.142862,11.3707539 C37.142862,11.9045073 37.148303,12.4383045 37.1416333,12.9719701 C37.130795,13.8404382 37.8250605,14.4456716 38.6008984,14.5758629 C38.9353061,14.6319412 39.2681779,14.6333454 39.6005231,14.5672186 C40.2421768,14.4396162 40.6952353,13.9100315 40.6720668,13.2367405 C40.6542077,12.7183451 40.9752759,12.4730573 41.4201727,12.4941634 C41.7995132,12.5121102 42.1805211,12.4924082 42.5605636,12.4997362 C43.0137099,12.5084243 43.228238,12.7310263 43.2243327,13.1816275 C43.2115198,14.6716963 42.4524,15.6817205 41.1670743,16.3382932 C40.3452942,16.7580908 39.4555444,16.8129405 38.5574575,16.7412849 C37.3693254,16.6465485 36.3366153,16.1970882 35.521856,15.3074261 C34.977045,14.7125044 34.6375473,14.0057332 34.6023119,13.2014612 C34.5608017,12.2529125 34.5925706,11.3011168 34.5925706,10.3506813 L34.5890163,10.3506813"/>
    <filter id="group_30-n" width="180.9%" height="156%" x="-40.5%" y="-20%" filterUnits="objectBoundingBox">
      <feOffset dy="1" in="SourceAlpha" result="shadowOffsetOuter1"/>
      <feGaussianBlur in="shadowOffsetOuter1" result="shadowBlurOuter1" stdDeviation="1"/>
      <feColorMatrix in="shadowBlurOuter1" values="0 0 0 0 0   0 0 0 0 0   0 0 0 0 0  0 0 0 0.5 0"/>
    </filter>
    <path id="group_30-q" d="M53.8227547,11.809942 C53.8227547,13.2210711 53.823018,14.6322001 53.8225792,16.0433291 C53.8224475,16.5562835 53.6234528,16.7558047 53.1040043,16.7597539 C52.7238301,16.7626499 52.3435681,16.7627816 51.963394,16.7596222 C51.5031392,16.7558486 51.2775095,16.5289903 51.2773779,16.0691304 C51.276588,13.3419159 51.2770268,10.6147014 51.2770268,7.88748686 C51.2770268,7.06342506 50.8346311,6.56280094 50.022724,6.45415466 C49.5701044,6.3936006 49.119547,6.38596553 48.6797403,6.51457709 C48.0824052,6.68921851 47.7522539,7.14451485 47.7520784,7.76501846 C47.7514202,10.492233 47.751859,13.2194036 47.7518151,15.9466181 C47.7517712,16.536011 47.5315387,16.7593151 46.9490788,16.7602366 C46.5835166,16.7607631 46.2178666,16.7632204 45.8523483,16.7595784 C45.4053891,16.7551026 45.1749765,16.526884 45.174801,16.0850149 C45.1736601,13.3505163 45.1869118,10.6158861 45.1697109,7.88147533 C45.1587848,6.14480239 46.3993972,4.91445795 47.7833646,4.4832516 C48.5440202,4.24625704 49.3229297,4.26306299 50.1060078,4.29487581 C51.0035682,4.33133988 51.8095515,4.60615879 52.5129879,5.16843397 C53.3689064,5.85265098 53.8295999,6.72906133 53.8242905,7.83978956 C53.8179279,9.16315909 53.8227547,10.4865725 53.8227547,11.809942"/>
    <filter id="group_30-p" width="180.9%" height="156.1%" x="-40.4%" y="-20%" filterUnits="objectBoundingBox">
      <feOffset dy="1" in="SourceAlpha" result="shadowOffsetOuter1"/>
      <feGaussianBlur in="shadowOffsetOuter1" result="shadowBlurOuter1" stdDeviation="1"/>
      <feColorMatrix in="shadowBlurOuter1" values="0 0 0 0 0   0 0 0 0 0   0 0 0 0 0  0 0 0 0.5 0"/>
    </filter>
    <path id="group_30-s" d="M55.785483,9.19685435 C55.785483,7.7929216 55.7992173,6.38876944 55.7778918,4.98514384 C55.7705638,4.50378293 56.0886043,4.27051816 56.4733859,4.28420864 C56.8604053,4.297943 57.2483901,4.28298001 57.6358922,4.28837722 C58.1160684,4.29504694 58.3376173,4.5235727 58.3422246,5.00822459 C58.3445064,5.24951937 58.3424879,5.49081414 58.3424879,5.73215279 C58.3424879,8.18902414 58.3629359,10.6461588 58.3322639,13.1026352 C58.3202848,14.0619344 58.9110818,14.5657618 59.772222,14.6172766 C60.1212854,14.6381634 60.473947,14.6390409 60.8196317,14.5655424 C61.4730013,14.4267068 61.8878843,13.8975608 61.8880599,13.2051822 C61.8886742,10.4850762 61.8882793,7.76497019 61.8882793,5.04486419 C61.8882793,4.47653361 62.0773132,4.28872825 62.6527523,4.2873241 C63.0183585,4.28644651 63.3840523,4.28262897 63.7495707,4.28837722 C64.2194351,4.29583677 64.4298824,4.51247112 64.4299263,4.97667505 C64.4300141,7.71872093 64.4379563,10.4608107 64.4266792,13.2028127 C64.4206238,14.6727845 63.6558874,15.6731112 62.3894738,16.3278411 C61.4690082,16.803717 60.4720602,16.7878764 59.4745856,16.7425048 C58.6116024,16.7032324 57.8273396,16.4396906 57.1420256,15.9048402 C56.2516615,15.2099166 55.7779795,14.3106887 55.7839033,13.167314 C55.7907485,11.8438567 55.785483,10.5203555 55.785483,9.19685435"/>
    <filter id="group_30-r" width="180.9%" height="156.1%" x="-40.4%" y="-20%" filterUnits="objectBoundingBox">
      <feOffset dy="1" in="SourceAlpha" result="shadowOffsetOuter1"/>
      <feGaussianBlur in="shadowOffsetOuter1" result="shadowBlurOuter1" stdDeviation="1"/>
      <feColorMatrix in="shadowBlurOuter1" values="0 0 0 0 0   0 0 0 0 0   0 0 0 0 0  0 0 0 0.5 0"/>
    </filter>
    <path id="group_30-u" d="M10.72255,7.91124774 L10.72255,1.08412833 C10.72255,0.524880851 10.961958,0.276784718 11.5169052,0.280602256 C11.9180978,0.283322801 12.3214844,0.243523863 12.7201759,0.30135738 C13.1130313,0.358313302 13.2753864,0.556693674 13.2759568,0.952752341 C13.2778875,2.24659079 13.276615,3.54042924 13.276615,4.83426769 C13.276615,7.68513537 13.2960099,10.5362224 13.2642848,13.3866952 C13.2552895,14.195048 13.7913684,14.6091413 14.4989734,14.6203745 C14.7547484,14.6244114 15.0107868,14.6161182 15.2664741,14.6222613 C15.7181285,14.6330119 15.9331831,14.8552628 15.9342801,15.3034068 C15.9348506,15.5519417 15.9346751,15.8004766 15.9341924,16.0490116 C15.9331831,16.5317327 15.750424,16.7424433 15.2692386,16.7500345 C14.6923953,16.7592054 14.11485,16.772106 13.5377873,16.7376165 C12.6986309,16.6875059 11.9747027,16.3764423 11.4077324,15.7549294 C11.03199,15.3429863 10.7808223,14.8516647 10.7588386,14.2821932 C10.6710791,12.0105822 10.7533536,9.73778642 10.72255,7.91124774"/>
    <filter id="group_30-t" width="234.2%" height="142.4%" x="-67.1%" y="-15.2%" filterUnits="objectBoundingBox">
      <feOffset dy="1" in="SourceAlpha" result="shadowOffsetOuter1"/>
      <feGaussianBlur in="shadowOffsetOuter1" result="shadowBlurOuter1" stdDeviation="1"/>
      <feColorMatrix in="shadowBlurOuter1" values="0 0 0 0 0   0 0 0 0 0   0 0 0 0 0  0 0 0 0.5 0"/>
    </filter>
  </defs>
  <g fill="none" fill-rule="evenodd">
    <path fill="url(#group_30-a)" d="M11.0769231,-1.66060022e-12 C19.0678911,-5.32910332e-12 28.4362098,1.42208594e-12 36.9230769,-1.68454851e-12 C45.409944,-4.78986243e-12 48,2.57604803 48,11.0769231 C48,19.5777981 48,28.5815858 48,36.9230769 C48,45.2645681 45.1479688,48 36.9230769,48 C28.698185,48 19.2956728,48 11.0769231,48 C2.85817338,48 6.05382411e-12,44.9902455 -1.46849671e-12,36.9230769 C-8.98955071e-12,28.8559084 7.50265223e-12,19.0157336 -1.45975675e-12,11.0769231 C-1.04212422e-11,3.1381126 3.08595504,2.00790289e-12 11.0769231,-1.66060022e-12 Z"/>
    <g transform="translate(11.538 12)">
      <g fill-rule="nonzero">
        <use fill="#000" filter="url(#group_30-b)" xlink:href="#group_30-c"/>
        <use fill="url(#group_30-d)" fill-rule="evenodd" xlink:href="#group_30-c"/>
      </g>
      <g fill-rule="nonzero" transform="matrix(-1 0 0 1 37.372 0)">
        <use fill="#000" filter="url(#group_30-e)" xlink:href="#group_30-f"/>
        <use fill="#FFF" fill-rule="evenodd" xlink:href="#group_30-f"/>
      </g>
      <path fill="url(#group_30-g)" d="M12.4615385,4.18348694 C17.3405139,8.75104078 21.4896635,12.6855012 24.9089871,15.9868683 C24.9232844,16.8799812 24.9600862,17.634561 24.7778988,18.3365106 C24.5957114,19.0384601 24.2354052,19.6058874 23.7764468,19.8601882 C23.3174884,20.1144891 22.4453704,20.405842 21.8199015,20.6791356 C19.930278,21.5047912 17.1387573,22.6255283 12.9744662,24.2471079 C12.8239448,24.3077417 12.641492,24.3547693 12.5515152,24.3768006 C12.4615385,24.3988319 12.4615385,24.3768006 12.4615385,24.2662565 C12.4615385,17.5880401 12.4615385,10.8937836 12.4615385,4.18348694 Z" opacity=".05"/>
    </g>
    <g transform="translate(62 15)">
      <g transform="translate(66.519 4.264)">
        <use fill="#000" filter="url(#group_30-h)" xlink:href="#group_30-i"/>
        <use fill="#FFF" xlink:href="#group_30-i"/>
      </g>
      <use fill="#000" filter="url(#group_30-j)" xlink:href="#group_30-k"/>
      <use fill="#FFF" xlink:href="#group_30-k"/>
      <use fill="#000" filter="url(#group_30-l)" xlink:href="#group_30-m"/>
      <use fill="#FFF" xlink:href="#group_30-m"/>
      <use fill="#000" filter="url(#group_30-n)" xlink:href="#group_30-o"/>
      <use fill="#FFF" xlink:href="#group_30-o"/>
      <g>
        <use fill="#000" filter="url(#group_30-p)" xlink:href="#group_30-q"/>
        <use fill="#FFF" xlink:href="#group_30-q"/>
      </g>
      <g>
        <use fill="#000" filter="url(#group_30-r)" xlink:href="#group_30-s"/>
        <use fill="#FFF" xlink:href="#group_30-s"/>
      </g>
      <g>
        <use fill="#000" filter="url(#group_30-t)" xlink:href="#group_30-u"/>
        <use fill="#FFF" xlink:href="#group_30-u"/>
      </g>
    </g>
  </g>
</svg>
